<svg width="12" height="16" viewBox="0 0 12 16" fill="none" xmlns="http://www.w3.org/2000/svg">
<path d="M6 0C2.69141 0 0 2.69172 0 6C0 10.4264 5.53581 15.6875 5.7715 15.9095C5.83594 15.9697 5.91797 16 6 16C6.08203 16 6.16406 15.9697 6.22853 15.9095C6.46419 15.6875 12 10.4264 12 6C12 2.69172 9.30859 0 6 0ZM6 9.33334C4.16209 9.33334 2.66666 7.83791 2.66666 6C2.66666 4.16209 4.16213 2.66666 6 2.66666C7.83787 2.66666 9.33334 4.16213 9.33334 6C9.33334 7.83787 7.83791 9.33334 6 9.33334Z" fill="white"/>
</svg>
