<svg width="16" height="16" viewBox="0 0 16 16" fill="none" xmlns="http://www.w3.org/2000/svg">
<path d="M10.606 8.08195L15.9999 11.492V4.52795L10.606 8.08195Z" fill="white"/>
<path d="M0 4.52795V11.492L5.394 8.08195L0 4.52795Z" fill="white"/>
<path d="M15 2.5H1.00003C0.501029 2.5 0.105029 2.872 0.0300293 3.351L8.00003 8.602L15.97 3.351C15.895 2.872 15.499 2.5 15 2.5Z" fill="white"/>
<path d="M9.68998 8.68594L8.27498 9.61794C8.19098 9.67294 8.09598 9.69994 7.99998 9.69994C7.90398 9.69994 7.80898 9.67294 7.72498 9.61794L6.30998 8.68494L0.0319824 12.6559C0.108982 13.1309 0.502982 13.4999 0.999982 13.4999H15C15.497 13.4999 15.891 13.1309 15.968 12.6559L9.68998 8.68594Z" fill="white"/>
</svg>
